<?xml version="1.0" encoding="UTF-8"?>
<svg xmlns="http://www.w3.org/2000/svg" xmlns:xlink="http://www.w3.org/1999/xlink" width="2448pt" height="3168pt" viewBox="0 0 2448 3168" version="1.2">
<g id="surface2">
<path style=" stroke:none;fill-rule:nonzero;fill:rgb(100%,100%,100%);fill-opacity:1;" d="M 1057.238281 3103.457031 L 1320.164062 3103.457031 L 1320.164062 2996 L 1057.238281 2996 Z "/>
<path style=" stroke:none;fill-rule:nonzero;fill:rgb(100%,100%,100%);fill-opacity:1;" d="M 144 2940 L 1188 2940 L 1188 2544 L 144 2544 Z "/>
<path style=" stroke:none;fill-rule:nonzero;fill:rgb(100%,100%,100%);fill-opacity:1;" d="M 144 2970.765625 L 2304 2970.765625 L 2304 1874.902344 L 144 1874.902344 Z "/>
<path style="fill:none;stroke-width:2.5;stroke-linecap:butt;stroke-linejoin:miter;stroke:rgb(13.699341%,12.199402%,12.5%);stroke-opacity:1;stroke-miterlimit:10;" d="M 371.25 3358.75 L 5751.25 3358.75 " transform="matrix(0.4,0,0,-0.4,0,3168)"/>
<path style=" stroke:none;fill-rule:nonzero;fill:rgb(100%,100%,100%);fill-opacity:1;" d="M 144 2939.890625 L 1188 2939.890625 L 1188 2412 L 144 2412 Z "/>
<path style="fill:none;stroke-width:2.5;stroke-linecap:butt;stroke-linejoin:miter;stroke:rgb(13.699341%,12.199402%,12.5%);stroke-opacity:1;stroke-miterlimit:10;" d="M 370 1810.917969 L 1160 1810.917969 " transform="matrix(0.4,0,0,-0.4,0,3168)"/>
<path style=" stroke:none;fill-rule:nonzero;fill:rgb(90.19928%,90.59906%,90.99884%);fill-opacity:1;" d="M 144 1727.976562 L 234 1727.976562 L 234 915.816406 L 144 915.816406 Z "/>
<path style="fill:none;stroke-width:5;stroke-linecap:butt;stroke-linejoin:miter;stroke:rgb(13.699341%,12.199402%,12.5%);stroke-opacity:1;stroke-miterlimit:10;" d="M 360 6680 L 5580 6680 " transform="matrix(0.4,0,0,-0.4,0,3168)"/>
<path style=" stroke:none;fill-rule:nonzero;fill:rgb(100%,100%,100%);fill-opacity:1;" d="M 1406 504 L 2304 504 L 2304 418.179688 L 1406 418.179688 Z "/>
</g>
</svg>
