<?xml version="1.0" encoding="UTF-8"?>
<svg xmlns="http://www.w3.org/2000/svg" xmlns:xlink="http://www.w3.org/1999/xlink" width="2448pt" height="3168pt" viewBox="0 0 2448 3168" version="1.2">
<g id="surface20">
<path style=" stroke:none;fill-rule:nonzero;fill:rgb(100%,100%,100%);fill-opacity:1;" d="M 143.929688 288 L 2303.898438 288 L 2303.898438 218 L 143.929688 218 Z "/>
<path style=" stroke:none;fill-rule:nonzero;fill:rgb(100%,100%,100%);fill-opacity:1;" d="M 1132 3103.457031 L 1394.921875 3103.457031 L 1394.921875 2996 L 1132 2996 Z "/>
<path style=" stroke:none;fill-rule:nonzero;fill:rgb(100%,100%,100%);fill-opacity:1;" d="M 144 2952 L 2304 2952 L 2304 324 L 144 324 Z "/>
<path style=" stroke:none;fill-rule:nonzero;fill:rgb(100%,100%,100%);fill-opacity:1;" d="M 144 1144.003906 L 2304 1144.003906 L 2304 356 L 144 356 Z "/>
<path style="fill:none;stroke-width:20;stroke-linecap:butt;stroke-linejoin:miter;stroke:rgb(13.699341%,12.199402%,12.5%);stroke-opacity:1;stroke-miterlimit:10;" d="M 370 6766.513672 L 5750 6766.513672 " transform="matrix(0.4,0,0,-0.4,0,3168)"/>
<path style="fill:none;stroke-width:2.5;stroke-linecap:butt;stroke-linejoin:miter;stroke:rgb(13.699341%,12.199402%,12.5%);stroke-opacity:1;stroke-miterlimit:10;" d="M 371.25 6633.75 L 5751.25 6633.75 " transform="matrix(0.4,0,0,-0.4,0,3168)"/>
<path style="fill:none;stroke-width:2.5;stroke-linecap:butt;stroke-linejoin:miter;stroke:rgb(13.699341%,12.199402%,12.5%);stroke-opacity:1;stroke-miterlimit:10;" d="M 370 5266.513672 L 5750 5266.513672 " transform="matrix(0.4,0,0,-0.4,0,3168)"/>
<path style="fill:none;stroke-width:2.5;stroke-linecap:butt;stroke-linejoin:miter;stroke:rgb(13.699341%,12.199402%,12.5%);stroke-opacity:1;stroke-miterlimit:10;" d="M 4425.361328 5430 L 5747.558594 5430 " transform="matrix(0.4,0,0,-0.4,0,3168)"/>
</g>
</svg>
